<?xml version="1.0" encoding="utf-8"?>
<!-- Generator: Adobe Illustrator 23.0.1, SVG Export Plug-In . SVG Version: 6.00 Build 0)  -->
<svg version="1.1" id="组_11" xmlns="http://www.w3.org/2000/svg" xmlns:xlink="http://www.w3.org/1999/xlink" x="0px" y="0px"
	 viewBox="0 0 16 16" enable-background="new 0 0 16 16" xml:space="preserve">
<path opacity="0.75" fill="#1F2022" d="M10,3C9.3,3,8.6,3.2,8,3.4C7.4,3.2,6.7,3,6,3C3.3,3,1,5.3,1,8s2.3,5,5,5c0.7,0,1.4-0.2,2-0.4
	c0.6,0.3,1.3,0.4,2,0.4c2.8,0,5-2.3,5-5S12.8,3,10,3z M2,8c0-2.2,1.8-4,4-4s4,1.8,4,4c0,2.2-1.8,4-4,4S2,10.2,2,8z M8,3.4 M8,12.6
	 M10,12c-0.3,0-0.6,0-0.9-0.1C10.2,11,11,9.6,11,8s-0.8-3-1.9-3.9C9.4,4,9.7,4,10,4c2.2,0,4,1.8,4,4C14,10.2,12.2,12,10,12z"/>
</svg>
