<?xml version="1.0" encoding="utf-8"?>
<!-- Generator: Adobe Illustrator 24.0.0, SVG Export Plug-In . SVG Version: 6.00 Build 0)  -->
<svg version="1.1" id="图层_15" xmlns="http://www.w3.org/2000/svg" xmlns:xlink="http://www.w3.org/1999/xlink" x="0px" y="0px"
	 viewBox="0 0 16 16" style="enable-background:new 0 0 16 16;" xml:space="preserve">
<style type="text/css">
	.st0{display:none;opacity:0.75;fill:#1F2022;enable-background:new    ;}
	.st1{opacity:0.75;fill:#1F2022;}
</style>
<path class="st0" d="M13.5,11.5c-0.1,0-0.3-0.1-0.4-0.2L8,5.3l-5.1,6c-0.2,0.2-0.5,0.2-0.7,0.1C2,11.2,2,10.9,2.1,10.7l5.5-6.5
	C7.8,4,8.2,4,8.4,4.2l5.5,6.5c0.2,0.2,0.2,0.5-0.1,0.7C13.7,11.5,13.6,11.5,13.5,11.5z"/>
<path class="st1" d="M12,10c-0.1,0-0.3,0-0.4-0.1L8,6.2L4.4,9.9C4.2,10,3.8,10,3.6,9.9s-0.2-0.5,0-0.7l4-4C7.8,5,8.2,5,8.4,5.1l4,4
	c0.2,0.2,0.2,0.5,0,0.7C12.3,10,12.1,10,12,10z"/>
</svg>
