<?xml version="1.0" encoding="UTF-8"?>
<svg viewBox="0 0 24 24" version="1.1" xmlns="http://www.w3.org/2000/svg" xmlns:xlink="http://www.w3.org/1999/xlink">
    <title>click</title>
    <g id="Edu-OS-Light" stroke="none" stroke-width="1" fill="none" fill-rule="evenodd">
        <g id="TM-桌面01" transform="translate(-1856.000000, -508.000000)">
            <g id="click" transform="translate(1856.000000, 508.000000)">
                <rect id="overlay备份" fill-opacity="0.298039216" fill="#FF5500" opacity="0" x="0" y="0" width="24" height="24"></rect>
                <path d="M12,4.5 C12.9664983,4.5 13.8414983,4.89175084 14.4748737,5.52512627 C15.1082492,6.15850169 15.5,7.03350169 15.5,8 L15.5,8 L15.5,16 C15.5,16.9664983 15.1082492,17.8414983 14.4748737,18.4748737 C13.8414983,19.1082492 12.9664983,19.5 12,19.5 C11.0335017,19.5 10.1585017,19.1082492 9.52512627,18.4748737 C8.89175084,17.8414983 8.5,16.9664983 8.5,16 L8.5,16 L8.5,8 C8.5,7.03350169 8.89175084,6.15850169 9.52512627,5.52512627 C10.1585017,4.89175084 11.0335017,4.5 12,4.5 Z" id="矩形备份-5" stroke-opacity="0.5" stroke="#FFFFFF" fill="#FFFFFF"></path>
            </g>
        </g>
    </g>
</svg>