<svg width="24" height="24" viewBox="0 0 24 24" fill="none" xmlns="http://www.w3.org/2000/svg">
<path d="M16 11C16 13.2091 14.2091 15 12 15C9.79086 15 8 13.2091 8 11C8 8.79086 9.79086 7 12 7C14.2091 7 16 8.79086 16 11Z" fill="white" fill-opacity="0.25"/>
<path d="M15.5 11C15.5 12.933 13.933 14.5 12 14.5C10.067 14.5 8.5 12.933 8.5 11C8.5 9.067 10.067 7.5 12 7.5C13.933 7.5 15.5 9.067 15.5 11Z" stroke="white" stroke-opacity="0.5"/>
<path opacity="0.5" d="M14 15.5C14 15.5 13 16 12 16C11 16 10 15.5 10 15.5V15.9981C10 16.5504 10.4477 16.9981 11 16.9981V16.9981V16.9981C11 17.2753 11.2247 17.5 11.5019 17.5H12.4981C12.7753 17.5 13 17.2753 13 16.9981V16.9981V16.9981C13.5523 16.9981 14 16.5504 14 15.9981V15.5Z" fill="white"/>
</svg>
