<svg width="16" height="16" viewBox="0 0 16 16" fill="none" xmlns="http://www.w3.org/2000/svg">
<g opacity="0.45">
<path d="M12.9414 3.05843C11.514 1.63244 9.49103 0.810091 7.26666 1.03755C4.05272 1.36124 1.408 3.96826 1.04895 7.17893C0.567295 11.4219 3.8513 15 7.99352 15C10.7871 15 13.1866 13.364 14.3076 11.0107C14.5878 10.4246 14.1674 9.75096 13.5194 9.75096C13.1954 9.75096 12.8889 9.92593 12.7488 10.2146C11.7592 12.3405 9.38594 13.6877 6.79377 13.1103C4.84964 12.6817 3.28207 11.0982 2.87048 9.15607C2.13486 5.76169 4.71828 2.75224 7.99352 2.75224C9.44724 2.75224 10.7433 3.35588 11.6891 4.30945L10.3668 5.63046C9.81505 6.18161 10.2004 7.12644 10.9798 7.12644H14.1237C14.6053 7.12644 14.9994 6.73276 14.9994 6.2516V3.11092C14.9994 2.33231 14.0536 1.93864 13.5019 2.48978L12.9414 3.05843Z" fill="#262628"/>
</g>
</svg>
