<?xml version="1.0" encoding="UTF-8"?>
<svg width="24px" height="24px" viewBox="0 0 24 24" version="1.1" xmlns="http://www.w3.org/2000/svg" xmlns:xlink="http://www.w3.org/1999/xlink">
    <title>ukui-global search-search-blue</title>
    <g id="Edu-OS-Light" stroke="none" stroke-width="1" fill="none" fill-rule="evenodd">
        <g id="TM-桌面01" transform="translate(-136.000000, -229.000000)">
            <g id="编组-4" transform="translate(112.000000, 72.000000)">
                <g id="bar-搜索" transform="translate(0.000000, 129.000000)">
                    <g id="ukui-global-search-search-blue" transform="translate(24.000000, 28.000000)">
                        <rect id="矩形" fill="#D8D8D8" opacity="0" x="0" y="0" width="24" height="24"></rect>
                        <path d="M20.0438748,18.9452961 C20.1903159,19.010529 20.3261068,19.1023875 20.4459222,19.2208716 L21.3871392,20.1620886 C21.9073266,20.682276 21.9073266,21.5256665 21.3871392,22.0458539 C20.8669518,22.5660413 20.0235614,22.5660413 19.503374,22.0458539 L18.562157,21.1046369 C18.4194646,20.9622814 18.3111039,20.7892687 18.2453117,20.5987494 C13.6793877,23.9173079 7.31736537,23.0972668 3.74219939,18.7293519 C0.167033407,14.361437 0.620549962,7.96283413 4.77605327,4.14284924 C8.93155659,0.32286435 15.3456416,0.408360923 19.3978496,4.33775053 C23.4500576,8.26714015 23.7328629,14.6755578 20.0425435,18.9466274 L20.0438748,18.9452961 Z M12,20 C16.418278,20 20,16.418278 20,12 C20,7.581722 16.418278,4 12,4 C7.581722,4 4,7.581722 4,12 C4,16.418278 7.581722,20 12,20 Z" id="形状" fill="#33BFE9"></path>
                    </g>
                </g>
            </g>
        </g>
    </g>
</svg>