<?xml version="1.0" encoding="utf-8"?>
<!-- Generator: Adobe Illustrator 23.0.1, SVG Export Plug-In . SVG Version: 6.00 Build 0)  -->
<svg version="1.1" id="图层_1" xmlns="http://www.w3.org/2000/svg" xmlns:xlink="http://www.w3.org/1999/xlink" x="0px" y="0px"
	 width="16px" height="16px" viewBox="0 0 16 16" style="enable-background:new 0 0 16 16;" xml:space="preserve">
<style type="text/css">
	.st0{fill:#FFFFFF;}
	.st1{fill:none;stroke:#FFFFFF;stroke-miterlimit:10;}
</style>
<g>
	<path class="st0" d="M11,8c1.7,0,3,1.3,3,3s-1.3,3-3,3s-3-1.3-3-3S9.3,8,11,8 M11,7c-2.2,0-4,1.8-4,4s1.8,4,4,4s4-1.8,4-4
		S13.2,7,11,7L11,7z"/>
</g>
<path class="st0" d="M6,11c0-0.3,0-0.6,0.1-0.8L3.8,7.8l2.4-0.6l3.9-3.9l2.6,2.6l-0.3,0.3c0.8,0.2,1.5,0.6,2.1,1.2L15,6.9L9.1,1
	L8.4,1.7l1,1L5.7,6.3l-3.9,1l3.1,3.1L1,14.3L1.7,15l3.9-3.9L6,11.5C6,11.4,6,11.2,6,11z"/>
<line class="st1" x1="8.4" y1="8.4" x2="13.4" y2="13.4"/>
</svg>
