<?xml version="1.0" encoding="utf-8"?>
<!-- Generator: Adobe Illustrator 24.0.0, SVG Export Plug-In . SVG Version: 6.00 Build 0)  -->
<svg version="1.1" id="图层_1" xmlns="http://www.w3.org/2000/svg" xmlns:xlink="http://www.w3.org/1999/xlink" x="0px" y="0px"
	 viewBox="0 0 16 16" style="enable-background:new 0 0 16 16;" xml:space="preserve">
<style type="text/css">
	.st0{fill:#FFFFFF;}
</style>
<g>
	<path class="st0" d="M6,12c0.6,0,1-0.4,1-1V6c0-0.6-0.4-1-1-1S5,5.4,5,6v5C5,11.6,5.4,12,6,12z"/>
	<path class="st0" d="M10,12c0.6,0,1-0.4,1-1V6c0-0.6-0.4-1-1-1S9,5.4,9,6v5C9,11.6,9.4,12,10,12z"/>
	<path class="st0" d="M11,2V1c0-0.6-0.4-1-1-1H6C5.4,0,5,0.4,5,1v1H0v1h2v10c0,1.1,0.9,2,2,2h8c1.1,0,2-0.9,2-2V3h2V2H11z M6,1h4v1
		H6V1z M13,13c0,0.6-0.4,1-1,1H4c-0.6,0-1-0.4-1-1V3h10V13z"/>
</g>
</svg>
