<svg width="16" height="16" viewBox="0 0 16 16" fill="none" xmlns="http://www.w3.org/2000/svg">
<g opacity="0.45">
<path d="M12.9404 3.05843C11.513 1.63244 9.49005 0.810091 7.26569 1.03755C4.05174 1.36124 1.40702 3.96826 1.04797 7.17893C0.566318 11.4219 3.85032 15 7.99255 15C10.7861 15 13.1856 13.364 14.3066 11.0107C14.5868 10.4246 14.1665 9.75096 13.5184 9.75096C13.1944 9.75096 12.8879 9.92593 12.7478 10.2146C11.7582 12.3405 9.38496 13.6877 6.79279 13.1103C4.84866 12.6817 3.28109 11.0982 2.8695 9.15607C2.13388 5.76169 4.7173 2.75224 7.99255 2.75224C9.44626 2.75224 10.7424 3.35588 11.6881 4.30945L10.3658 5.63046C9.81407 6.18161 10.1994 7.12644 10.9788 7.12644H14.1227C14.6043 7.12644 14.9984 6.73276 14.9984 6.2516V3.11092C14.9984 2.33231 14.0526 1.93864 13.5009 2.48978L12.9404 3.05843Z" fill="white"/>
</g>
</svg>
